<?xml version="1.0" encoding="UTF-8" standalone="no"?>
<svg
   xmlns:dc="http://purl.org/dc/elements/1.1/"
   xmlns:cc="http://creativecommons.org/ns#"
   xmlns:rdf="http://www.w3.org/1999/02/22-rdf-syntax-ns#"
   xmlns:svg="http://www.w3.org/2000/svg"
   xmlns="http://www.w3.org/2000/svg"
   xmlns:sodipodi="http://sodipodi.sourceforge.net/DTD/sodipodi-0.dtd"
   xmlns:inkscape="http://www.inkscape.org/namespaces/inkscape"
   width="45pt"
   height="39.75pt"
   version="1.1"
   id="svg4"
   sodipodi:docname="bluesky.svg"
   viewBox="0 0 600 530"
   inkscape:version="0.92.4 (5da689c313, 2019-01-14)">
  <metadata
     id="metadata10">
    <rdf:RDF>
      <cc:Work
         rdf:about="">
        <dc:format>image/svg+xml</dc:format>
        <dc:type
           rdf:resource="http://purl.org/dc/dcmitype/StillImage" />
        <dc:title></dc:title>
      </cc:Work>
    </rdf:RDF>
  </metadata>
  <defs
     id="defs8" />
  <sodipodi:namedview
     pagecolor="#ffffff"
     bordercolor="#666666"
     borderopacity="1"
     objecttolerance="10"
     gridtolerance="10"
     guidetolerance="10"
     inkscape:pageopacity="0"
     inkscape:pageshadow="2"
     inkscape:window-width="1920"
     inkscape:window-height="991"
     id="namedview6"
     showgrid="false"
     units="pt"
     inkscape:pagecheckerboard="true"
     scale-x="10"
     inkscape:zoom="10.24"
     inkscape:cx="36.652983"
     inkscape:cy="22.31112"
     inkscape:window-x="-9"
     inkscape:window-y="-9"
     inkscape:window-maximized="1"
     inkscape:current-layer="svg4">
    <inkscape:grid
       type="xygrid"
       id="grid817" />
  </sodipodi:namedview>
  <path
     d="m 135.7217,44.034771 c 66.496,49.921 138.02,151.139999 164.28,205.459999 26.262,-54.316 97.782,-155.539999 164.28,-205.459999 47.98,-36.0209996 125.72,-63.892 125.72,24.795 0,17.712 -10.155,148.789999 -16.111,170.069999 -20.703,73.984 -96.144,92.854 -163.25,81.433 117.3,19.964 147.14,86.092 82.697,152.22 -122.39,125.59 -175.91,-31.511 -189.63,-71.766 -2.514,-7.3797 -3.6904,-10.832 -3.7077,-7.8964 -0.0174,-2.9357 -1.1937,0.5167 -3.7077,7.8964 -13.714,40.255 -67.233,197.36 -189.63,71.766 -64.444,-66.128 -34.605,-132.26 82.697,-152.22 -67.108,11.421 -142.55,-7.4491 -163.25,-81.433 -5.9562,-21.282 -16.111,-152.359999 -16.111,-170.069999 0,-88.687 77.742,-60.8159996 125.72,-24.795 z"
     id="path2"
     inkscape:connector-curvature="0"
     style="fill:#1185fe" />
</svg>
