<?xml version="1.0" encoding="UTF-8" standalone="no"?>
<svg
   xmlns:dc="http://purl.org/dc/elements/1.1/"
   xmlns:cc="http://creativecommons.org/ns#"
   xmlns:rdf="http://www.w3.org/1999/02/22-rdf-syntax-ns#"
   xmlns:svg="http://www.w3.org/2000/svg"
   xmlns="http://www.w3.org/2000/svg"
   xmlns:sodipodi="http://sodipodi.sourceforge.net/DTD/sodipodi-0.dtd"
   xmlns:inkscape="http://www.inkscape.org/namespaces/inkscape"
   width="120"
   height="93"
   overflow="hidden"
   version="1.1"
   id="svg895"
   sodipodi:docname="dict-page.svg"
   style="overflow:hidden"
   inkscape:version="0.92.4 (5da689c313, 2019-01-14)">
  <metadata
     id="metadata899">
    <rdf:RDF>
      <cc:Work
         rdf:about="">
        <dc:format>image/svg+xml</dc:format>
        <dc:type
           rdf:resource="http://purl.org/dc/dcmitype/StillImage" />
        <dc:title></dc:title>
      </cc:Work>
    </rdf:RDF>
  </metadata>
  <sodipodi:namedview
     pagecolor="#ffffff"
     bordercolor="#666666"
     borderopacity="1"
     objecttolerance="10"
     gridtolerance="10"
     guidetolerance="10"
     inkscape:pageopacity="0"
     inkscape:pageshadow="2"
     inkscape:window-width="1920"
     inkscape:window-height="1011"
     id="namedview897"
     showgrid="false"
     fit-margin-top="5"
     fit-margin-left="5"
     fit-margin-right="5"
     fit-margin-bottom="5"
     inkscape:zoom="2.4638554"
     inkscape:cx="191.38117"
     inkscape:cy="30.662292"
     inkscape:window-x="-9"
     inkscape:window-y="-9"
     inkscape:window-maximized="1"
     inkscape:current-layer="svg895" />
  <defs
     id="defs861">
    <clipPath
       id="clip0">
      <rect
         x="0"
         y="0"
         width="1280"
         height="720"
         id="rect858" />
    </clipPath>
  </defs>
  <path
     style="fill:#ffffff;fill-rule:evenodd;stroke:#1e90ff;stroke-width:4;stroke-miterlimit:8;stroke-opacity:1"
     inkscape:connector-curvature="0"
     id="path865"
     stroke-miterlimit="8"
     d="M 7,15.833 C 7,10.955 10.955,7 15.834,7 H 51.167 C 56.045,7 60,10.955 60,15.833 V 77.167 C 60,82.045 56.045,86 51.167,86 H 15.834 C 10.955,86 7,82.045 7,77.167 Z" />
  <path
     style="fill:#ffffff;fill-rule:evenodd;stroke:#1e90ff;stroke-width:4;stroke-miterlimit:8;stroke-opacity:1"
     inkscape:connector-curvature="0"
     id="path867"
     stroke-miterlimit="8"
     d="M 60,15.833 C 60,10.955 63.955,7 68.833,7 h 35.334 C 109.045,7 113,10.955 113,15.833 V 77.167 C 113,82.045 109.045,86 104.167,86 H 68.833 C 63.955,86 60,82.045 60,77.167 Z" />
  <rect
     id="rect869"
     height="3"
     width="35"
     y="21.000013"
     x="15.999989"
     style="fill:#1e90ff;fill-opacity:1" />
  <rect
     id="rect871"
     height="3"
     width="29"
     y="28.500015"
     x="21.999989"
     style="fill:#1e90ff;fill-opacity:1" />
  <rect
     id="rect873"
     height="3"
     width="29"
     y="36.000015"
     x="21.999989"
     style="fill:#1e90ff;fill-opacity:1" />
  <rect
     id="rect875"
     height="3"
     width="35"
     y="53.000015"
     x="15.999989"
     style="fill:#1e90ff;fill-opacity:1" />
  <rect
     id="rect877"
     height="3"
     width="29"
     y="60.500015"
     x="21.999989"
     style="fill:#1e90ff;fill-opacity:1" />
  <rect
     id="rect879"
     height="3"
     width="29"
     y="68.000015"
     x="21.999989"
     style="fill:#1e90ff;fill-opacity:1" />
  <rect
     id="rect881"
     height="3"
     width="35"
     y="21.000013"
     x="68.999985"
     style="fill:#1e90ff;fill-opacity:1" />
  <rect
     id="rect883"
     height="3"
     width="29"
     y="28.500015"
     x="74.999992"
     style="fill:#1e90ff;fill-opacity:1" />
  <rect
     id="rect885"
     height="3"
     width="29"
     y="36.000015"
     x="74.999992"
     style="fill:#1e90ff;fill-opacity:1" />
  <rect
     id="rect887"
     height="3"
     width="35"
     y="53.000015"
     x="68.999985"
     style="fill:#1e90ff;fill-opacity:1" />
  <rect
     id="rect889"
     height="3"
     width="29"
     y="60.500015"
     x="74.999992"
     style="fill:#1e90ff;fill-opacity:1" />
  <rect
     id="rect891"
     height="3"
     width="29"
     y="68.000015"
     x="74.999992"
     style="fill:#1e90ff;fill-opacity:1" />
</svg>
