<?xml version="1.0" encoding="UTF-8" standalone="no"?>
<!-- Created with Inkscape (http://www.inkscape.org/) -->

<svg
   xmlns:dc="http://purl.org/dc/elements/1.1/"
   xmlns:cc="http://creativecommons.org/ns#"
   xmlns:rdf="http://www.w3.org/1999/02/22-rdf-syntax-ns#"
   xmlns:svg="http://www.w3.org/2000/svg"
   xmlns="http://www.w3.org/2000/svg"
   xmlns:sodipodi="http://sodipodi.sourceforge.net/DTD/sodipodi-0.dtd"
   xmlns:inkscape="http://www.inkscape.org/namespaces/inkscape"
   width="248.15799mm"
   height="81.872673mm"
   viewBox="0 0 248.15799 81.872673"
   version="1.1"
   id="svg8"
   inkscape:version="0.92.4 (5da689c313, 2019-01-14)"
   sodipodi:docname="learningchamoru.svg">
  <defs
     id="defs2" />
  <sodipodi:namedview
     id="base"
     pagecolor="#ffffff"
     bordercolor="#666666"
     borderopacity="1.0"
     inkscape:pageopacity="0.0"
     inkscape:pageshadow="2"
     inkscape:zoom="0.98994949"
     inkscape:cx="569.37362"
     inkscape:cy="49.570137"
     inkscape:document-units="mm"
     inkscape:current-layer="layer2"
     showgrid="false"
     fit-margin-top="0"
     fit-margin-left="0"
     fit-margin-right="0"
     fit-margin-bottom="0"
     inkscape:window-width="1920"
     inkscape:window-height="1011"
     inkscape:window-x="-9"
     inkscape:window-y="-9"
     inkscape:window-maximized="1" />
  <metadata
     id="metadata5">
    <rdf:RDF>
      <cc:Work
         rdf:about="">
        <dc:format>image/svg+xml</dc:format>
        <dc:type
           rdf:resource="http://purl.org/dc/dcmitype/StillImage" />
        <dc:title></dc:title>
      </cc:Work>
    </rdf:RDF>
  </metadata>
  <g
     inkscape:label="Layer 1"
     inkscape:groupmode="layer"
     id="layer1"
     transform="translate(30.151911,-116.67512)">
    <flowRoot
       xml:space="preserve"
       id="flowRoot828"
       style="font-style:normal;font-variant:normal;font-weight:normal;font-stretch:normal;font-size:40px;line-height:1.25;font-family:'Segoe UI Emoji';-inkscape-font-specification:'Segoe UI Emoji';letter-spacing:0px;word-spacing:0px;fill:#ffffff;fill-opacity:1;stroke:none"
       transform="matrix(0.08773389,0,0,0.08773389,108.94967,139.91315)"><flowRegion
         id="flowRegion830"
         style="font-style:normal;font-variant:normal;font-weight:normal;font-stretch:normal;font-family:'Segoe UI Emoji';-inkscape-font-specification:'Segoe UI Emoji';fill:#ffffff"><rect
           id="rect832"
           width="66.071426"
           height="65.35714"
           x="901.07141"
           y="309.30539"
           style="font-style:normal;font-variant:normal;font-weight:normal;font-stretch:normal;font-family:'Segoe UI Emoji';-inkscape-font-specification:'Segoe UI Emoji';fill:#ffffff" /></flowRegion><flowPara
         id="flowPara834">asdftm</flowPara></flowRoot>    <path
       style="fill:#28c2de;fill-opacity:1;stroke:none;stroke-width:0.26458332px;stroke-linecap:butt;stroke-linejoin:miter;stroke-opacity:1"
       d="m 37.952272,122.473 8.491551,43.65274 1.464659,2.22061 6.756323,-0.0472 9.543899,-3.96875 17.29241,-1.93712 32.836686,-1.74814 -70.505597,-38.70663 z"
       id="path857"
       inkscape:connector-curvature="0"
       sodipodi:nodetypes="ccccccccc" />
  </g>
  <g
     inkscape:groupmode="layer"
     id="layer2"
     inkscape:label="Layer 2"
     style="display:inline"
     transform="translate(30.151911,-116.67512)">
    <path
       style="fill:#144d2a;fill-opacity:1;stroke-width:0.08466666"
       d="M -30.151911,157.61145 V 116.67512 H 93.927086 218.00608 v 40.93633 40.93634 H 93.927086 -30.151911 Z m 104.718807,30.0128 c 1.09919,-0.11578 2.04123,-0.37127 2.93486,-0.79595 2.04148,-0.9702 3.09033,-2.43886 3.09033,-4.32727 0,-1.90354 -1.08949,-3.00015 -3.31445,-3.33613 -0.34241,-0.0517 -1.53695,-0.12939 -2.65455,-0.17264 -1.24823,-0.0483 -2.20717,-0.12545 -2.48614,-0.19999 -0.58601,-0.15658 -0.93894,-0.49982 -1.0027,-0.97514 -0.0435,-0.32465 -0.0221,-0.37625 0.2714,-0.65305 0.18672,-0.17611 0.37012,-0.2808 0.44295,-0.25286 0.31423,0.12059 1.83296,0.2267 2.52049,0.17612 2.2126,-0.16281 3.5856,-0.97174 4.33784,-2.55575 0.28226,-0.59436 0.31786,-0.74677 0.34765,-1.48837 0.0366,-0.91098 -0.0879,-1.46273 -0.45824,-2.03145 -0.11307,-0.17363 -0.20558,-0.37579 -0.20558,-0.44926 0,-0.23761 0.72119,-0.4792 1.60237,-0.53676 l 0.81063,-0.053 0.13719,-1.143 c 0.0755,-0.62865 0.12407,-1.16635 0.10802,-1.19489 -0.0697,-0.12383 -0.8869,-0.28015 -1.44398,-0.27619 -1.16726,0.008 -1.88365,0.56491 -2.24093,1.74116 -0.0963,0.31712 -0.21104,0.57658 -0.25492,0.57658 -0.0439,0 -0.22115,-0.072 -0.39392,-0.15999 -1.17944,-0.60072 -3.54272,-0.7375 -5.22759,-0.30256 -1.60932,0.41544 -2.83282,1.53835 -3.21517,2.95084 -0.21801,0.8054 -0.14976,1.87261 0.16417,2.5673 0.25137,0.55623 0.95809,1.317 1.46876,1.58107 0.14998,0.0776 0.26986,0.16862 0.2664,0.20235 -0.003,0.0337 -0.20341,0.21583 -0.44432,0.40467 -0.6436,0.50447 -0.98899,1.20846 -0.98788,2.01356 10e-4,0.72149 0.23274,1.29231 0.70846,1.74487 0.16869,0.16048 0.30671,0.31723 0.30671,0.34833 0,0.0311 -0.17039,0.12163 -0.37863,0.20116 -0.49441,0.18881 -1.13696,0.77282 -1.41759,1.28844 -0.657746,1.2085 -0.403704,2.93407 0.56318,3.82531 1.13162,1.04309 3.51582,1.54889 6.04518,1.28245 z m -1.87287,-1.86877 c -0.97934,-0.1433 -1.64368,-0.55445 -1.96844,-1.21825 -0.4538,-0.92752 -0.21909,-2.2333 0.50001,-2.78178 l 0.28133,-0.21459 2.06608,0.0787 c 2.73699,0.10426 3.21926,0.225 3.69591,0.92536 0.29601,0.43492 0.26917,1.25793 -0.0597,1.83135 -0.6229,1.08605 -2.53241,1.66933 -4.51517,1.3792 z m 0.10103,-10.62256 c -0.50096,-0.15432 -1.1197,-0.70095 -1.2981,-1.14683 -0.077,-0.19239 -0.14183,-0.592 -0.1441,-0.88802 -0.008,-1.01557 0.3055,-1.56629 1.12357,-1.97508 0.44782,-0.22378 0.61587,-0.2612 1.17299,-0.2612 1.12794,0 1.96987,0.55783 2.25081,1.4913 0.15457,0.51362 0.15185,0.99491 -0.009,1.5355 -0.15495,0.52176 -0.69135,1.03913 -1.28823,1.24251 -0.47691,0.1625 -1.28402,0.16331 -1.80825,0.002 z m 81.472774,6.44329 c 1.29161,-0.27374 2.28143,-0.82303 3.28762,-1.82442 1.23268,-1.22681 1.67911,-2.33906 1.75346,-4.36863 0.069,-1.88246 -0.24524,-3.08929 -1.09974,-4.22391 -0.81315,-1.07972 -1.95883,-1.81982 -3.36075,-2.171 -0.99319,-0.2488 -2.61438,-0.19623 -3.57378,0.1159 -2.10816,0.68585 -3.62413,2.22895 -4.22208,4.29764 -0.26039,0.90083 -0.32387,2.67492 -0.13055,3.64825 0.26324,1.32534 0.93055,2.46577 1.90138,3.24946 0.85802,0.69261 1.64748,1.05408 2.93103,1.34199 0.38961,0.0874 1.98903,0.0459 2.51341,-0.0653 z m -1.83608,-2.27622 c -0.55723,-0.18495 -0.83682,-0.36165 -1.20608,-0.76226 -0.74929,-0.81288 -1.11894,-1.91182 -1.121,-3.33261 -0.001,-1.01486 0.10125,-1.56717 0.42522,-2.28619 0.50612,-1.12329 1.39194,-1.7454 2.49453,-1.75189 1.37604,-0.008 2.43859,1.00659 2.89072,2.76056 0.18253,0.70809 0.18396,2.1441 0.003,2.83839 -0.28366,1.08728 -0.91451,1.97004 -1.68791,2.36196 -0.50175,0.25425 -1.31593,0.33214 -1.79831,0.17204 z M 7.3344337,181.39686 c 0.621245,-0.1082 1.619366,-0.35172 1.692401,-0.41291 0.0435,-0.0365 0.277702,-2.35927 0.241521,-2.39545 -0.02108,-0.0211 -0.317244,0.0254 -0.658135,0.10322 -1.530566,0.34956 -3.426968,0.47616 -4.3198,0.28837 -0.699167,-0.14706 -1.339181,-0.48944 -1.828004,-0.97792 -0.462282,-0.46195 -0.916911,-1.28906 -1.004197,-1.82694 l -0.04738,-0.29195 0.580456,-0.0548 c 0.31925,-0.0301 1.361505,-0.0552 2.316122,-0.0556 0.954616,-4.2e-4 2.511246,-0.0259 3.459177,-0.0567 l 1.723512,-0.0558 -0.03818,-1.53144 c -0.03429,-1.37568 -0.06057,-1.59498 -0.258319,-2.15626 -0.545765,-1.54901 -1.601211,-2.52356 -3.192861,-2.94813 -0.760065,-0.20275 -2.623127,-0.2033 -3.386666,-0.001 -0.942756,0.24979 -1.85893297,0.75574 -2.47734397,1.3681 -1.40692803,1.39315 -2.08857003,3.2437 -1.99015503,5.40296 0.06567,1.44082 0.435281,2.42146 1.35429403,3.59317 0.917817,1.17018 2.28469197,1.88786 4.08450297,2.14456 0.697346,0.0995 2.84605,0.0218 3.749048,-0.13543 z m -5.855181,-7.91837 c 0.381611,-1.63867 1.202835,-2.39222 2.616501,-2.40088 1.514482,-0.009 2.273276,0.73206 2.443884,2.38768 l 0.0458,0.4445 h -1.083105 c -0.595708,0 -1.773019,0.025 -2.616249,0.0555 l -1.533143,0.0555 z m 175.4366973,7.9577 c 0.52741,-0.12787 1.51866,-0.5799 2.00417,-0.91395 0.20982,-0.14435 0.41791,-0.26245 0.46244,-0.26245 0.0445,0 0.1081,0.18097 0.14127,0.40216 0.10397,0.69342 0.0213,0.66173 1.59664,0.61155 0.77041,-0.0245 1.42274,-0.0666 1.4496,-0.0935 0.0269,-0.0269 0.0104,-0.40684 -0.0365,-0.84438 -0.24426,-2.27624 -0.31779,-6.09976 -0.18422,-9.57983 l 0.0544,-1.41831 -0.46567,4.3e-4 c -0.25611,2.5e-4 -1.0056,0.0251 -1.66552,0.0553 l -1.19984,0.0549 0.0489,4.466 0.0489,4.466 -0.33326,0.17002 c -0.78212,0.39901 -1.96919,0.59105 -2.70688,0.4379 -0.92419,-0.19186 -1.3652,-0.85063 -1.56629,-2.33968 -0.12076,-0.89432 -0.14545,-3.71869 -0.0508,-5.81542 l 0.0682,-1.51043 -1.71916,0.0605 c -0.94554,0.0333 -1.7288,0.0686 -1.74057,0.0784 -0.0118,0.01 0.0205,0.47178 0.0716,1.02657 0.0512,0.55479 0.10709,2.38604 0.12426,4.06946 0.0321,3.14851 0.0882,3.8436 0.38267,4.74152 0.41573,1.26776 1.32328,1.99416 2.78717,2.23085 0.56654,0.0916 1.87194,0.0412 2.42853,-0.0937 z M 16.965087,181.24381 c 0.372533,-0.11967 0.905598,-0.36814 1.184589,-0.55216 0.27899,-0.18401 0.520571,-0.32126 0.536843,-0.30498 0.01627,0.0163 0.07391,0.22919 0.128091,0.47316 l 0.0985,0.44357 1.142654,-0.016 c 1.504846,-0.0211 1.888821,-0.0744 1.820269,-0.25308 -0.02871,-0.0748 -0.114955,-0.53688 -0.191649,-1.0268 -0.114998,-0.73458 -0.136342,-1.4855 -0.121754,-4.28327 0.01644,-3.1528 0.0057,-3.43946 -0.152184,-4.05673 -0.355711,-1.39081 -1.146148,-2.12316 -2.752028,-2.54977 -1.188011,-0.31561 -4.873037,-0.14295 -6.175157,0.28933 l -0.428842,0.14236 -0.132457,1.10067 c -0.07285,0.60537 -0.122749,1.11427 -0.110883,1.1309 0.01187,0.0166 0.452471,-0.0588 0.979123,-0.16755 1.27733,-0.26383 3.913277,-0.29268 4.607222,-0.0504 0.689913,0.24086 0.97351,0.65944 1.08742,1.60503 0.09478,0.78676 0.06153,0.82609 -0.699965,0.82803 -0.792873,0.002 -2.285294,0.19388 -3.00119,0.38583 -2.311468,0.61977 -3.659418,2.25147 -3.508492,4.24705 0.102175,1.351 0.998028,2.36538 2.451445,2.7758 0.705293,0.19916 2.375853,0.11612 3.238443,-0.16098 z m -1.771404,-2.0411 c -1.057083,-0.37664 -1.280624,-1.69502 -0.431396,-2.54424 0.538895,-0.5389 1.32872,-0.77973 3.057282,-0.93221 l 0.600482,-0.053 0.0553,0.95976 c 0.03041,0.52786 0.05547,1.19987 0.05568,1.49336 l 4.23e-4,0.53362 -0.529533,0.2478 c -0.891657,0.41725 -2.106668,0.54484 -2.808203,0.29489 z m 78.606403,2.10112 0.71966,-0.15504 0.0968,-1.10067 c 0.0533,-0.60537 0.10087,-1.2573 0.10583,-1.44874 l 0.009,-0.34807 -0.8255,0.19995 c -3.41196,0.82645 -5.84976,0.0806 -7.23652,-2.21395 -0.55868,-0.92441 -0.76825,-1.70391 -0.80784,-3.00486 -0.0436,-1.43246 0.0902,-2.12985 0.61102,-3.18492 0.63282,-1.28196 1.51536,-2.01745 2.8294,-2.35795 0.9636,-0.24969 2.71587,-0.15872 3.9845,0.20687 0.1599,0.0461 0.30236,0.0721 0.31656,0.0579 0.0739,-0.0739 0.44326,-2.80693 0.38693,-2.86326 -0.0364,-0.0364 -0.46381,-0.12921 -0.94971,-0.20617 -1.3131,-0.20798 -3.3881,-0.13165 -4.52579,0.16647 -2.10765,0.55229 -3.77748,1.8078 -4.96795,3.73529 -0.85737,1.38816 -1.25815,2.86053 -1.25999,4.62879 -0.002,2.17562 0.56256,3.80419 1.8675,5.3847 1.12555,1.36325 2.66979,2.21792 4.69306,2.59744 0.95829,0.17975 3.94587,0.12316 4.953,-0.0938 z m 24.959244,-0.0734 c 0.38623,-0.12844 0.91454,-0.38225 1.17401,-0.56401 0.25948,-0.18176 0.48296,-0.31903 0.49662,-0.30504 0.0137,0.014 0.0759,0.23193 0.13832,0.48433 l 0.11347,0.4589 1.143,-0.0166 c 0.62865,-0.009 1.29842,-0.038 1.48837,-0.0642 l 0.34536,-0.0476 -0.10815,-0.572 c -0.23188,-1.22628 -0.29914,-2.73624 -0.24164,-5.42444 0.0619,-2.8933 0.009,-3.46524 -0.39771,-4.30551 -0.39596,-0.81792 -1.2575,-1.4201 -2.52556,-1.76523 -1.1325,-0.30824 -4.8509,-0.12754 -6.13282,0.29804 l -0.42885,0.14236 -0.13626,1.10067 c -0.0749,0.60537 -0.12484,1.11427 -0.11088,1.1309 0.0139,0.0166 0.45628,-0.0594 0.98293,-0.16906 0.81007,-0.1686 1.20532,-0.19933 2.56621,-0.19957 1.67724,-2.5e-4 2.03056,0.0557 2.52012,0.39916 0.12876,0.0903 0.29427,0.2806 0.3678,0.42279 0.1624,0.31406 0.3074,1.26871 0.23594,1.55343 -0.0493,0.19638 -0.0841,0.20677 -0.69887,0.20834 -0.77427,0.002 -2.22874,0.18674 -2.98179,0.37879 -1.83958,0.46914 -3.14986,1.66987 -3.47461,3.1841 -0.3829,1.78543 0.58307,3.33226 2.40164,3.84579 0.73204,0.20671 2.38263,0.11852 3.26335,-0.17438 z m -1.68924,-1.98448 c -0.70392,-0.21266 -1.02734,-0.63468 -1.03504,-1.35064 -0.0136,-1.26446 0.96101,-1.92523 3.13851,-2.12787 0.53625,-0.0499 0.98634,-0.0787 1.00023,-0.064 0.0139,0.0147 0.053,0.68367 0.0869,1.48661 l 0.0617,1.4599 -0.54032,0.25285 c -0.83039,0.38858 -2.05051,0.54297 -2.71193,0.34316 z m 81.08166,1.95301 c 0.47225,-0.20968 0.85329,-0.55172 1.11821,-1.00378 0.30168,-0.51477 0.37711,-1.60083 0.15211,-2.18998 -0.48012,-1.25717 -1.96225,-1.76718 -3.25635,-1.12051 -0.85112,0.42531 -1.25581,1.10799 -1.26719,2.13763 -0.008,0.76079 0.1207,1.16572 0.51423,1.6128 0.66963,0.76073 1.78049,0.98941 2.73899,0.56384 z m -1.4098,-0.81386 c -0.34101,-0.18524 -0.6119,-0.82176 -0.61013,-1.43365 0.003,-0.89231 0.45655,-1.48564 1.13669,-1.48564 0.19714,0 0.35252,0.0844 0.58669,0.31852 0.85677,0.85678 0.46864,2.73681 -0.56282,2.72609 -0.17928,-0.002 -0.42697,-0.0583 -0.55043,-0.12532 z m -9.05685,0.8436 c 0.91031,-0.27034 1.53432,-1.14902 1.53432,-2.16051 0,-1.19047 -0.62885,-1.89897 -1.77796,-2.00317 -1.41948,-0.12871 -2.53997,0.87082 -2.53736,2.26345 0.003,1.50695 1.24567,2.35617 2.781,1.90023 z m 6.22723,0.0398 c 0.36036,-0.0907 0.36591,-0.0977 0.41642,-0.52419 0.0282,-0.23771 0.0376,-0.44577 0.0211,-0.46233 -0.0166,-0.0166 -0.27281,0.0142 -0.56943,0.0684 -0.67507,0.1233 -1.13594,0.0147 -1.49456,-0.35207 -0.669,-0.68428 -0.49965,-2.00139 0.30032,-2.33564 0.30608,-0.12789 0.96174,-0.12083 1.30366,0.014 0.1157,0.0456 0.15445,-0.0246 0.21793,-0.39519 0.0441,-0.25745 0.0455,-0.48701 0.003,-0.53537 -0.12622,-0.14441 -1.67417,-0.0915 -2.03088,0.0695 -0.43789,0.19756 -0.87976,0.6051 -1.14288,1.05408 -0.32108,0.54788 -0.37273,1.50453 -0.11374,2.10657 0.47108,1.09505 1.74893,1.62964 3.08888,1.29224 z M -2.9438913,180.54203 c 0.03005,-0.35555 0.05464,-0.97015 0.05464,-1.36577 v -0.71932 l -0.656166,0.0558 c -0.360892,0.0307 -2.005326,0.0807 -3.6542972,0.11106 -2.359684,0.0435 -2.9844465,0.0331 -2.9338715,-0.0487 0.03534,-0.0572 0.09653,-2.6638 0.1359745,-5.79247 0.03944,-3.12868 0.09715,-6.17506 0.128245,-6.76975 l 0.05653,-1.08124 -1.7604465,0.0229 -1.760449,0.0229 0.03641,1.43934 c 0.05756,2.27564 0.03112,13.7491 -0.03291,14.28187 -0.05749,0.47832 -0.05644,0.48136 0.175076,0.508 0.128101,0.0147 2.465745,0.0167 5.1947645,0.004 l 4.9618542,-0.0225 0.05465,-0.64645 z m 30.4727253,0.65313 c 0.03579,-0.002 0.03946,-1.70901 0.0082,-3.79287 l -0.05693,-3.78884 0.191662,-0.381 c 0.246873,-0.49075 0.553902,-0.81756 0.977365,-1.04033 0.492559,-0.25912 1.821394,-0.2993 2.596326,-0.0785 l 0.564326,0.16078 0.34584,-1.3819 c 0.190212,-0.76004 0.345841,-1.41968 0.345841,-1.46587 0,-0.0462 -0.276225,-0.16894 -0.613834,-0.2728 -0.844768,-0.25987 -1.943727,-0.25678 -2.624843,0.007 -0.581553,0.22554 -1.223356,0.71421 -1.556718,1.18528 -0.133249,0.18829 -0.284994,0.34316 -0.337209,0.34416 -0.05631,0.001 -0.138253,-0.32546 -0.201396,-0.80253 -0.05855,-0.44238 -0.119842,-0.80433 -0.136198,-0.80433 -0.156004,0 -3.129952,0.35926 -3.151387,0.38069 -0.01565,0.0156 0.03262,0.32792 0.107273,0.69393 0.43451,2.13035 0.548218,4.57639 0.389937,8.38818 -0.05819,1.40124 -0.08646,2.57902 -0.06283,2.61729 0.03135,0.0508 2.511143,0.0749 3.214616,0.0313 z m 17.757252,4.6e-4 c 0.111409,-0.004 0.125566,-0.56356 0.115316,-4.55859 -0.01276,-4.97332 -0.02819,-5.15413 -0.516425,-6.05117 -0.802378,-1.47424 -3.374152,-2.07828 -5.640567,-1.32482 -0.507672,0.16877 -1.3884,0.65593 -1.852104,1.02446 -0.127297,0.10117 -0.25294,0.16246 -0.279209,0.13619 -0.02627,-0.0263 -0.08764,-0.30947 -0.136378,-0.62933 -0.04874,-0.31987 -0.113683,-0.60833 -0.144318,-0.64103 -0.05425,-0.0579 -3.059276,0.2412 -3.12958,0.3115 -0.01942,0.0194 0.02564,0.37071 0.100128,0.78063 0.405805,2.23318 0.505862,4.05608 0.394766,7.19216 -0.0476,1.34374 -0.110761,2.73844 -0.140354,3.09933 l -0.05381,0.65617 h 1.715888 1.715888 l -0.03279,-4.38018 -0.03279,-4.38019 0.423333,-0.27853 c 0.98779,-0.64992 2.459977,-0.83823 3.351997,-0.42877 0.506463,0.23248 0.757273,0.51352 0.982782,1.10124 0.111946,0.29176 0.147562,0.77512 0.176656,2.39743 0.03248,1.81152 -0.08441,5.12772 -0.201951,5.72897 -0.03322,0.16991 -0.0072,0.23264 0.105194,0.254 0.115681,0.022 2.386284,0.015 3.078322,-0.009 z m 6.403789,-0.0301 c 0.01729,-0.0173 -0.01272,-1.38068 -0.06669,-3.02976 -0.07351,-2.24619 -0.07424,-3.75122 -0.0029,-5.99959 0.05236,-1.65069 0.08687,-3.00855 0.07668,-3.01747 -0.02694,-0.0236 -3.484254,0.32277 -3.519821,0.35262 -0.01648,0.0138 0.04067,0.58951 0.127,1.27929 0.134483,1.07452 0.156882,1.87261 0.156391,5.57215 -3.39e-4,2.3749 -0.02744,4.43931 -0.06027,4.58758 -0.04699,0.21223 -0.03043,0.27527 0.07786,0.29633 0.187448,0.0365 3.172409,-0.002 3.211771,-0.0411 z m 14.1188,-4.61359 c -0.02339,-4.84028 -0.03506,-5.00611 -0.40739,-5.79075 -0.551764,-1.16274 -1.882005,-1.79425 -3.774533,-1.7919 -1.43576,0.002 -2.359059,0.29773 -3.562426,1.14184 -0.277055,0.19435 -0.520726,0.33637 -0.541494,0.31561 -0.02076,-0.0208 -0.08142,-0.3219 -0.13479,-0.66919 -0.05337,-0.3473 -0.106316,-0.64155 -0.117652,-0.65388 -0.02622,-0.0285 -3.126995,0.32323 -3.162528,0.35877 -0.01453,0.0145 0.03306,0.33999 0.105759,0.72325 0.209043,1.10199 0.368746,2.55965 0.431196,3.93574 0.05333,1.17498 -0.06441,5.46058 -0.180847,6.58284 l -0.05051,0.48683 h 1.70753 1.707523 l -0.02021,-4.3815 -0.02022,-4.3815 0.403149,-0.26706 c 1.159747,-0.76827 2.888081,-0.87212 3.753798,-0.22555 0.669137,0.49974 0.829013,1.25861 0.808363,3.83694 -0.01488,1.85673 -0.150656,4.80274 -0.240716,5.22253 -0.05088,0.23719 0.0213,0.24543 1.872395,0.21365 l 1.445997,-0.0248 z m 34.827025,4.64411 c 0.0822,-0.004 0.0929,-0.76638 0.0497,-3.56095 l -0.0549,-3.556 h 3.15216 3.15217 l -0.0493,2.56117 c -0.0271,1.40864 -0.0701,3.00884 -0.0955,3.556 -0.0365,0.78576 -0.0229,0.99598 0.0648,1.00032 0.061,0.003 0.85388,0.0101 1.76193,0.0157 l 1.651,0.0103 -0.0423,-2.49225 c -0.0614,-3.61362 -0.0519,-9.01004 0.0203,-11.57275 l 0.0626,-2.2225 h -1.78806 -1.78806 l 0.0513,0.5715 c 0.0282,0.31433 0.0768,1.78118 0.10807,3.25967 l 0.0568,2.68816 h -3.19172 -3.19171 l 0.0456,-1.24883 c 0.0251,-0.68686 0.0673,-2.15371 0.0937,-3.25967 l 0.0481,-2.01083 h -1.793594 -1.79358 l 0.0525,0.4445 c 0.10302,0.87297 0.15467,10.54722 0.0702,13.14435 -0.047,1.44349 -0.0544,2.64364 -0.0166,2.667 0.052,0.0322 2.70823,0.0362 3.364474,0.005 z m 28.36618,0.003 0.36147,-0.008 -0.0579,-4.41298 -0.0579,-4.41299 0.2044,-0.16203 c 0.71303,-0.56522 1.69229,-0.81329 2.63383,-0.6672 1.7054,0.2646 1.93652,0.99189 1.76225,5.5455 -0.0536,1.39885 -0.12388,2.89579 -0.15631,3.32653 l -0.059,0.78317 0.21313,0.007 c 0.19967,0.006 2.91608,0.003 3.08432,-0.004 0.0461,-0.002 0.0543,-1.34105 0.0204,-3.32631 -0.0312,-1.82774 -0.0313,-3.85131 0,-4.49683 l 0.0566,-1.17367 0.26158,-0.1605 c 0.9336,-0.57279 2.17584,-0.69982 3.02808,-0.30965 0.91511,0.41895 1.09647,0.95623 1.1511,3.41015 0.0218,0.9779 -0.008,2.63525 -0.0671,3.683 -0.14686,2.62278 -0.14888,2.41225 0.023,2.40129 0.0815,-0.005 0.82444,-0.0142 1.651,-0.02 l 1.50283,-0.0106 -0.0134,-4.46854 c -0.008,-2.76029 -0.0481,-4.65646 -0.10428,-4.96009 -0.26956,-1.45823 -1.14347,-2.35563 -2.59165,-2.66132 -1.78028,-0.37578 -3.22979,-0.0924 -4.69666,0.91808 -0.3347,0.23057 -0.62274,0.41922 -0.64008,0.41922 -0.0173,0 -0.21432,-0.1826 -0.43773,-0.40578 -0.66678,-0.66611 -1.50719,-0.98829 -2.8192,-1.08078 -1.31219,-0.0925 -2.40765,0.23006 -3.53974,1.0423 -0.34812,0.24976 -0.66022,0.42332 -0.69357,0.38569 -0.0334,-0.0376 -0.10218,-0.32998 -0.15295,-0.64966 -0.0508,-0.31968 -0.10601,-0.59492 -0.12274,-0.61165 -0.0285,-0.0286 -3.13206,0.2952 -3.16407,0.33006 -0.008,0.009 0.0402,0.30191 0.10738,0.65116 0.43113,2.23984 0.54178,4.80463 0.37304,8.64688 -0.0695,1.58236 -0.0762,2.39982 -0.02,2.43453 0.0706,0.0436 1.38755,0.0515 2.95978,0.0177 z m 34.42726,-0.008 h 1.45854 l -0.0369,-3.83574 c -0.0408,-4.24381 -0.0648,-4.02546 0.51476,-4.68553 0.4418,-0.50318 0.98244,-0.70577 1.88287,-0.70556 0.66605,1.7e-4 1.29873,0.10489 1.74207,0.2884 0.11106,0.046 0.18591,-0.16167 0.44674,-1.23934 0.17232,-0.71201 0.33511,-1.3776 0.36174,-1.47909 0.0432,-0.16451 -0.01,-0.20259 -0.49049,-0.35098 -1.69934,-0.52487 -3.06599,-0.19748 -4.13914,0.99155 -0.27372,0.30329 -0.51802,0.53108 -0.54289,0.50622 -0.0249,-0.0249 -0.0887,-0.36585 -0.14193,-0.75774 -0.0532,-0.39189 -0.11992,-0.73928 -0.14828,-0.77198 -0.0514,-0.0593 -3.05619,0.24227 -3.12781,0.31388 -0.0207,0.0207 0.0241,0.35297 0.0996,0.7383 0.37051,1.89151 0.43319,2.72937 0.41978,5.61128 -0.007,1.5367 -0.0474,3.3655 -0.0895,4.064 -0.0774,1.28569 -0.0503,1.45297 0.21957,1.35378 0.062,-0.0228 0.76911,-0.0414 1.5713,-0.0414 z m 37.92344,0.0296 0.32216,-0.0532 -0.0593,-1.63064 -0.0593,-1.63065 0.26206,-0.13552 c 0.14414,-0.0745 0.4517,-0.13552 0.68347,-0.13552 0.35817,0 0.44868,0.0347 0.60331,0.23129 0.17363,0.22073 0.18068,0.30191 0.15432,1.77809 -0.0177,0.9905 0.003,1.54896 0.057,1.55283 1.25946,0.0898 1.143,0.25857 1.143,-1.65602 0,-1.89845 -0.0149,-1.86306 0.78535,-1.86355 0.45721,-2.5e-4 0.52342,0.0229 0.68586,0.23973 0.16876,0.22533 0.1791,0.33302 0.16858,1.75684 -0.006,0.83423 0.0224,1.51903 0.0635,1.52177 0.0411,0.003 0.31283,0.007 0.60387,0.01 l 0.52917,0.005 -0.0116,-1.82722 c -0.0104,-1.62853 -0.0291,-1.85713 -0.17234,-2.10237 -0.25659,-0.43936 -0.64893,-0.61982 -1.34752,-0.61982 -0.52385,0 -0.65379,0.0333 -1.02229,0.26242 l -0.42214,0.26242 -0.22669,-0.19498 c -0.56346,-0.48467 -1.56644,-0.48404 -2.28183,0.001 l -0.2975,0.20189 -0.0505,-0.25225 -0.0504,-0.25225 -0.57225,0.0596 c -0.31474,0.0328 -0.58293,0.0687 -0.59598,0.0799 -0.013,0.0112 0.0172,0.2842 0.0673,0.60668 0.05,0.32248 0.0798,1.29766 0.0661,2.16707 l -0.0249,1.58074 0.21167,0.0331 c 0.36767,0.0575 0.4578,0.0579 0.78783,0.003 z M 50.476008,167.36924 c 0.409701,-0.55478 0.766859,-1.90074 0.872878,-3.28944 l 0.0556,-0.72827 -1.048366,0.04 c -0.622211,0.0237 -1.182398,0.003 -1.378092,-0.0514 l -0.329725,-0.0915 0.05632,0.73274 c 0.113916,1.482 0.542686,3.05268 0.958872,3.51256 0.222562,0.24593 0.579231,0.19119 0.812512,-0.1247 z m 0.783192,-0.41029 c 0.335138,-0.66136 0.501244,-1.3862 0.75968,-3.31505 0.0321,-0.23958 0.01262,-0.3175 -0.07937,-0.3175 -0.08586,0 -0.137471,0.14395 -0.174545,0.48684 -0.144373,1.33526 -0.413825,2.63261 -0.678197,3.26534 -0.190777,0.45659 -0.08095,0.3804 0.172432,-0.11963 z m 7.674678,-4.00857 c 8.766398,-1.96252 15.684538,-3.0561 21.700538,-3.43029 4.91201,-0.30552 11.92581,-0.46421 17.64929,-0.39933 l 4.441294,0.0503 -0.54662,-0.32491 C 101.87774,158.66746 89.877896,151.55739 75.512086,143.04601 61.146269,134.53463 49.106315,127.41063 48.994602,127.3381 l 0.45821,0.56486 c 0.225537,0.19793 16.721987,10.19918 44.431934,26.93759 1.88595,1.13923 4.0005,2.41921 4.699,2.84442 l 1.27,0.7731 -4.78366,0.0518 c -4.6451,0.0504 -5.5376,0.0732 -9.73667,0.24953 -10.01082,0.42032 -16.52042,1.48155 -29.294664,4.45006 l 0.736126,0.18724 c 0,0 1.027176,-0.19308 2.159,-0.44646 z m -7.245256,-0.55077 c 6.996564,-1.74228 17.632404,-3.7299 22.892134,-4.27807 5.24631,-0.54677 14.25315,-0.89543 18.92227,-0.7325 1.30347,0.0455 2.37562,0.076 2.38255,0.0679 0.007,-0.008 -3.34554,-2.07798 -7.44995,-4.59959 -10.92673,-6.71303 -32.368341,-19.8925 -39.329081,-24.17432 -3.323765,-2.04457 -6.055126,-3.70549 -6.069693,-3.69092 -0.01457,0.0146 0.407608,0.60782 0.938164,1.31834 4.885421,6.54257 8.294298,13.51855 9.234352,18.89732 0.187206,1.07115 0.260411,4.71362 0.124048,6.17224 -0.304701,3.25925 -1.067374,5.74581 -3.086145,10.06186 -0.625924,1.3382 -0.677437,1.46123 -0.611815,1.46123 0.01725,0 0.941177,-0.22656 2.053166,-0.50346 z"
       id="path826"
       inkscape:connector-curvature="0"
       sodipodi:nodetypes="cccccccccccsccscccccccsccccccscccccccccsccscccccccccccccccsccccccccccccccccccccccccccccccccccccccccccccsccccccccscccccsccccccccccccccccccccccccccccccccscccccccccccscccccccccccccccccccccsccsscsccccccccccccccccccccccccccccccccccscccccccccsscccccsccccsccccccccccsccsccccsccccccccccccccccccccccccscccccscccccccsccccccccccccccccscccccccscccscccccccccccccccscccccccccccccccccccccccccccccccccccccccccccccccccccccccccccccccccccscccccccccccccccccccccccccccccccccccccscccsccccccccsccccccccccccccccccccccccccssccccscccsccccccccccccsccccccsssscc" />
    <text
       xml:space="preserve"
       style="font-style:normal;font-variant:normal;font-weight:normal;font-stretch:normal;font-size:3.30692482px;line-height:1.25;font-family:'Segoe UI Emoji';-inkscape-font-specification:'Segoe UI Emoji';letter-spacing:0px;word-spacing:0px;fill:#ffffff;fill-opacity:1;stroke:none;stroke-width:0.08267312"
       x="184.19646"
       y="168.96056"
       id="text838"><tspan
         sodipodi:role="line"
         id="tspan836"
         x="184.19646"
         y="168.96056"
         style="font-style:normal;font-variant:normal;font-weight:normal;font-stretch:normal;font-family:'Segoe UI Emoji';-inkscape-font-specification:'Segoe UI Emoji';fill:#ffffff;stroke-width:0.08267312">TM</tspan></text>
  </g>
</svg>
