<?xml version="1.0" encoding="UTF-8" standalone="no"?>
<svg
   xmlns:dc="http://purl.org/dc/elements/1.1/"
   xmlns:cc="http://creativecommons.org/ns#"
   xmlns:rdf="http://www.w3.org/1999/02/22-rdf-syntax-ns#"
   xmlns:svg="http://www.w3.org/2000/svg"
   xmlns="http://www.w3.org/2000/svg"
   xmlns:sodipodi="http://sodipodi.sourceforge.net/DTD/sodipodi-0.dtd"
   xmlns:inkscape="http://www.inkscape.org/namespaces/inkscape"
   width="264.43124"
   height="264.43201"
   overflow="hidden"
   version="1.1"
   id="svg10"
   sodipodi:docname="search.svg"
   style="overflow:hidden"
   inkscape:version="0.92.4 (5da689c313, 2019-01-14)">
  <metadata
     id="metadata16">
    <rdf:RDF>
      <cc:Work
         rdf:about="">
        <dc:format>image/svg+xml</dc:format>
        <dc:type
           rdf:resource="http://purl.org/dc/dcmitype/StillImage" />
        <dc:title />
      </cc:Work>
    </rdf:RDF>
  </metadata>
  <defs
     id="defs14" />
  <sodipodi:namedview
     pagecolor="#ffffff"
     bordercolor="#666666"
     borderopacity="1"
     objecttolerance="10"
     gridtolerance="10"
     guidetolerance="10"
     inkscape:pageopacity="0"
     inkscape:pageshadow="2"
     inkscape:window-width="1920"
     inkscape:window-height="1011"
     id="namedview12"
     showgrid="false"
     fit-margin-top="0"
     fit-margin-left="0"
     fit-margin-right="0"
     fit-margin-bottom="0"
     inkscape:zoom="1.059375"
     inkscape:cx="22.56534"
     inkscape:cy="354.86763"
     inkscape:window-x="-9"
     inkscape:window-y="-9"
     inkscape:window-maximized="1"
     inkscape:current-layer="svg10"
     inkscape:pagecheckerboard="true" />
  <path
     style="fill:#ffffff;fill-opacity:1;fill-rule:evenodd;stroke:#ffffff;stroke-width:0.88110638;stroke-miterlimit:8;stroke-opacity:1"
     d="m 100.87302,45.280434 c -14.227127,0 -28.455275,5.428178 -39.310423,16.283325 -21.709634,21.709635 -21.709634,56.907521 0,78.617811 18.99626,18.99626 48.321173,21.37082 69.899303,7.12329 l 3.3749,-2.75647 19.45109,19.44957 -4.39404,4.39403 50.57221,50.57221 18.49849,-18.49698 -50.57221,-50.57372 -4.39403,4.39253 -19.44958,-19.44958 2.75648,-3.3749 C 161.55208,109.88342 159.17819,80.560019 140.18192,61.563759 129.3271,50.708612 115.10014,45.280434 100.87302,45.280434 Z m -0.0227,12.162974 a 43.427262,43.427262 0 0 1 43.42775,43.427742 43.427262,43.427262 0 0 1 -43.42775,43.42624 43.427262,43.427262 0 0 1 -43.427741,-43.42624 43.427262,43.427262 0 0 1 43.427741,-43.427742 z"
     id="path4"
     inkscape:connector-curvature="0" />
  <path
     style="opacity:1;fill:#ffffff;fill-opacity:1;stroke:#ffffff;stroke-width:0.37297258;stroke-miterlimit:4;stroke-dasharray:none;stroke-dashoffset:0;stroke-opacity:1;paint-order:normal"
     d="M 111.88104,69.276148 A 35.558918,35.558918 0 0 0 68.33017,94.420263 35.558918,35.558918 0 0 0 68.176117,95.090914 56.363554,56.363554 0 0 1 121.93788,73.753705 35.558918,35.558918 0 0 0 111.88104,69.276148 Z"
     id="path4550"
     inkscape:connector-curvature="0" />
</svg>
