<?xml version="1.0" encoding="UTF-8" standalone="no"?>
<svg
   xmlns:dc="http://purl.org/dc/elements/1.1/"
   xmlns:cc="http://creativecommons.org/ns#"
   xmlns:rdf="http://www.w3.org/1999/02/22-rdf-syntax-ns#"
   xmlns:svg="http://www.w3.org/2000/svg"
   xmlns="http://www.w3.org/2000/svg"
   xmlns:sodipodi="http://sodipodi.sourceforge.net/DTD/sodipodi-0.dtd"
   xmlns:inkscape="http://www.inkscape.org/namespaces/inkscape"
   width="264.43124"
   height="264.43201"
   overflow="hidden"
   version="1.1"
   id="svg10"
   sodipodi:docname="search2.svg"
   style="overflow:hidden"
   inkscape:version="0.92.4 (5da689c313, 2019-01-14)">
  <metadata
     id="metadata16">
    <rdf:RDF>
      <cc:Work
         rdf:about="">
        <dc:format>image/svg+xml</dc:format>
        <dc:type
           rdf:resource="http://purl.org/dc/dcmitype/StillImage" />
        <dc:title></dc:title>
      </cc:Work>
    </rdf:RDF>
  </metadata>
  <defs
     id="defs14" />
  <sodipodi:namedview
     pagecolor="#ffffff"
     bordercolor="#666666"
     borderopacity="1"
     objecttolerance="10"
     gridtolerance="10"
     guidetolerance="10"
     inkscape:pageopacity="0"
     inkscape:pageshadow="2"
     inkscape:window-width="1920"
     inkscape:window-height="1011"
     id="namedview12"
     showgrid="false"
     fit-margin-top="0"
     fit-margin-left="0"
     fit-margin-right="0"
     fit-margin-bottom="0"
     inkscape:zoom="2.11875"
     inkscape:cx="234.03164"
     inkscape:cy="155.9752"
     inkscape:window-x="-9"
     inkscape:window-y="-9"
     inkscape:window-maximized="1"
     inkscape:current-layer="svg10"
     inkscape:pagecheckerboard="true" />
  <path
     style="fill:#ffffff;fill-opacity:1;fill-rule:evenodd;stroke:#ffffff;stroke-width:1.13812685;stroke-miterlimit:8;stroke-opacity:1"
     inkscape:connector-curvature="0"
     id="path4"
     stroke-miterlimit="8"
     d="m 48.122492,48.123184 c -24.083392,24.083392 -24.083392,63.131196 0,87.214596 24.083393,24.08339 63.131198,24.08339 87.214588,0 24.08425,-24.0834 24.08425,-63.131204 0,-87.214596 -24.08339,-24.084246 -63.131195,-24.084246 -87.214588,0 z m -7.16851,-7.16851 c 28.043231,-28.04323 73.509228,-28.04323 101.551608,0 24.53751,24.537506 27.60448,62.414176 9.20178,90.286686 l -3.56121,4.36018 25.12393,25.12392 5.67471,-5.67471 65.32495,65.3258 -23.8939,23.89389 -65.32494,-65.32494 5.67471,-5.67557 -25.12478,-25.12393 -4.35932,3.56121 c -27.87251,18.40356 -65.750031,15.33658 -90.287538,-9.20092 -28.042376,-28.04323 -28.042376,-73.509239 0,-101.551616 z" />
  <path
     style="opacity:1;fill:#ffffff;fill-opacity:1;stroke:#ffffff;stroke-width:0.48176938;stroke-miterlimit:4;stroke-dasharray:none;stroke-dashoffset:0;stroke-opacity:1;paint-order:normal"
     d="M 105.94956,50.917186 A 45.931523,45.931523 0 0 0 49.694813,83.395887 45.931523,45.931523 0 0 0 49.495822,84.262169 72.804912,72.804912 0 0 1 118.93999,56.700854 45.931523,45.931523 0 0 0 105.94956,50.917186 Z"
     id="path4550"
     inkscape:connector-curvature="0" />
  <path
     style="opacity:1;fill:#ffffff;fill-opacity:1;stroke:#ffffff;stroke-width:0.46187204;stroke-miterlimit:4;stroke-dasharray:none;stroke-dashoffset:0;stroke-opacity:1;paint-order:normal"
     d="M 91.701172 27.638672 A 64.089867 64.089867 0 0 0 27.611328 91.728516 A 64.089867 64.089867 0 0 0 91.701172 155.81836 A 64.089867 64.089867 0 0 0 155.79102 91.728516 A 64.089867 64.089867 0 0 0 91.701172 27.638672 z M 91.701172 35.632812 A 56.095078 56.095078 0 0 1 147.79688 91.728516 A 56.095078 56.095078 0 0 1 91.701172 147.82227 A 56.095078 56.095078 0 0 1 35.605469 91.728516 A 56.095078 56.095078 0 0 1 91.701172 35.632812 z "
     id="path822" />
</svg>
